<svg xmlns="http://www.w3.org/2000/svg" width="108" height="104" viewBox="0 0 108 104" fill="none">
    <g clip-path="url(#clip0_38_30)">
        <path d="M12.4953 86.1041C12.4953 84.0279 12.4953 82.0664 12.4953 80.1176C12.4953 75.9143 12.4953 71.711 12.4953 67.5077C12.4953 65.0494 12.9156 64.629 15.3357 64.629C31.1172 64.629 46.9114 64.629 62.693 64.629C63.2916 64.629 63.8903 64.629 64.68 64.629C64.68 63.3553 64.5399 62.1325 64.7054 60.9607C65.164 57.7636 66.7307 55.1525 69.2144 53.0763C69.6093 52.7451 69.9787 52.3248 70.2207 51.879C75.978 40.9122 81.7225 29.9454 87.467 18.9786C87.6326 18.6729 87.7472 18.3544 87.9637 17.8704C87.4415 17.8704 87.0594 17.8704 86.69 17.8704C77.2135 17.8704 67.7369 17.8577 58.2604 17.8959C57.6617 17.8959 56.9994 18.0997 56.4771 18.3926C54.9359 19.246 53.3438 19.6664 51.5733 19.6536C51.0511 19.6536 50.3887 19.9084 50.0193 20.2778C45.5485 24.6849 41.1414 29.1429 36.6834 33.55C36.0083 34.2124 35.1804 34.7219 34.4416 35.346C34.2251 35.5243 33.9703 35.8173 33.9576 36.0593C33.9067 37.1929 33.9321 38.3265 33.9321 39.3964C34.1105 39.4856 34.1741 39.5493 34.2251 39.5493C37.5623 39.5493 37.1037 40.1097 37.9571 42.4534C38.0081 42.5808 38.0335 42.7336 38.0845 42.861C38.7596 44.8607 38.7596 44.8607 40.8485 44.9626C42.5425 45.0518 43.2813 46.2236 42.5425 47.7394C41.4471 50.0194 40.3008 52.2739 39.1544 54.5156C38.6322 55.5219 37.6387 55.853 36.7471 55.3818C35.9064 54.936 35.6262 53.9934 36.0975 52.9871C36.6452 51.828 37.2438 50.6944 37.8043 49.5481C37.9571 49.2424 38.0845 48.9239 38.2628 48.5163C34.1741 48.5163 30.2256 48.5163 26.0605 48.5163C26.5063 49.4207 26.9139 50.2359 27.3087 51.0383C27.6526 51.7389 28.0475 52.4267 28.3405 53.1527C28.7226 54.0826 28.3532 55.0633 27.5635 55.4454C26.7228 55.8403 25.7548 55.5601 25.2835 54.6557C24.0607 52.2866 22.8507 49.9047 21.6916 47.4974C21.1439 46.351 21.7808 45.2811 23.0417 45.0263C23.1436 45.0009 23.2583 44.9626 23.3602 44.9881C25.3599 45.4594 26.0477 44.3003 26.3662 42.619C26.761 40.4536 27.7928 39.0271 30.4421 39.7021C30.4421 38.3647 30.4676 37.2056 30.4166 36.0465C30.4039 35.8045 30.1237 35.4988 29.8944 35.3587C26.328 33.2316 25.8312 29.4614 28.7735 26.4936C33.2698 21.9718 37.7788 17.4628 42.3133 12.9666C42.861 12.4316 43.0902 11.9094 43.0775 11.1069C42.9756 7.60415 44.4659 4.86563 47.4846 3.12062C50.4651 1.38835 53.5094 1.49024 56.5281 3.18431C57.0503 3.47726 57.7127 3.65559 58.3241 3.66832C68.1572 3.6938 77.9904 3.68106 87.8236 3.70654C88.5624 3.70654 89.0592 3.46453 89.6069 2.98051C93.0332 -0.0254935 96.9181 -0.789732 101.109 1.04444C105.248 2.86587 107.439 6.24126 107.477 10.7248C107.515 15.2211 105.261 18.5073 101.198 20.4688C100.548 20.7745 100.23 21.1694 100 21.819C96.1156 33.1552 92.2053 44.4786 88.3331 55.8148C88.1421 56.3753 88.193 57.1522 88.435 57.6999C89.7724 60.8333 89.938 63.954 88.7662 67.1638C88.5751 67.7115 88.5624 68.4375 88.7407 68.9852C90.4857 74.3603 92.3072 79.71 94.0522 85.0851C94.3324 85.9258 94.689 86.257 95.6189 86.2315C97.937 86.1678 98.0135 86.257 98.8414 88.4733C100.23 92.1671 101.644 95.8482 102.981 99.5674C103.261 100.344 103.643 100.663 104.446 100.561C104.828 100.51 105.236 100.535 105.618 100.561C106.739 100.625 107.528 101.389 107.503 102.344C107.477 103.274 106.713 103.975 105.643 104.038C105.427 104.051 105.21 104.038 105.006 104.038C71.0868 104.038 37.1674 104.038 3.23525 104.038C2.70028 104.038 2.16531 104.064 1.63035 104.013C0.6241 103.873 0.0254471 103.223 -2.74781e-05 102.306C-0.0255021 101.338 0.585888 100.663 1.61761 100.523C1.69403 100.51 1.77046 100.497 1.83414 100.51C3.87211 101.02 4.45803 99.7458 5.00573 98.1281C6.13935 94.791 7.43855 91.5175 8.67407 88.2312C9.38736 86.3334 9.57842 86.206 11.6291 86.1551C11.8711 86.1551 12.1131 86.1296 12.4953 86.1041ZM99.542 100.459C99.5037 100.179 99.5037 100.039 99.4528 99.9114C98.2555 96.7143 97.0454 93.53 95.8736 90.3202C95.6571 89.7088 95.275 89.6451 94.7273 89.6451C91.6321 89.6578 88.5242 89.6451 85.429 89.6451C61.2791 89.6451 37.1165 89.6451 12.9665 89.6196C12.1131 89.6196 11.7183 89.8744 11.4381 90.6768C10.6356 92.995 9.73127 95.275 8.87787 97.5677C8.53396 98.4848 8.20279 99.4146 7.82067 100.485C11.7183 100.485 15.4503 100.497 19.1823 100.459C19.3607 100.459 19.6791 100.013 19.7046 99.7585C19.7683 98.9051 19.73 98.0517 19.7428 97.1983C19.7555 95.7335 20.3542 95.1349 21.8317 95.1349C26.3534 95.1221 30.8752 95.1221 35.4097 95.1349C36.8872 95.1349 37.4731 95.708 37.4986 97.211C37.524 98.2682 37.4986 99.3254 37.4986 100.421C48.4017 100.421 59.1392 100.421 69.9787 100.421C69.9787 99.3127 69.9659 98.2937 69.9787 97.262C69.9914 95.7463 70.5901 95.1349 72.1185 95.1349C76.5766 95.1349 81.0219 95.1349 85.48 95.1349C87.1613 95.1349 87.7217 95.6953 87.7472 97.3639C87.7599 98.3829 87.7472 99.4019 87.7472 100.459C91.7722 100.459 95.6061 100.459 99.542 100.459ZM16.049 86.1041C16.3292 86.1296 16.4693 86.1551 16.6094 86.1551C30.6841 86.1551 44.7461 86.1551 58.8208 86.1805C59.5468 86.1805 59.7761 85.8621 59.9799 85.2507C61.7631 79.8501 63.5718 74.4495 65.3678 69.0616C65.4569 68.7814 65.4952 68.4884 65.5588 68.17C48.9876 68.17 32.5565 68.17 16.0617 68.17C16.049 74.1693 16.049 80.1049 16.049 86.1041ZM63.3171 86.1041C72.5516 86.1041 81.5951 86.1041 90.7914 86.1041C89.1738 81.2512 87.5816 76.4875 85.9513 71.5836C83.3146 73.991 80.4233 75.2519 77.0224 75.2392C73.6216 75.2265 70.7684 73.8891 68.1955 71.5327C66.5269 76.462 64.9474 81.213 63.3171 86.1041ZM85.4418 53.4202C89.1101 42.7591 92.753 32.1871 96.3576 21.6916C94.4725 21.0929 92.702 20.5325 90.8424 19.9466C85.5819 29.9963 80.2704 40.1352 74.908 50.3887C79.7227 50.2104 81.1238 50.5034 85.4418 53.4202ZM60.1073 7.17108C61.0626 9.62938 60.9479 11.9476 60.171 14.304C69.0743 14.304 77.8249 14.304 86.5626 14.304C86.3971 13.0812 86.1168 11.9221 86.1168 10.7757C86.1168 9.59117 86.4098 8.41934 86.5754 7.17108C77.7866 7.17108 69.0361 7.17108 60.1073 7.17108ZM86.0531 62.7949C86.0659 57.7764 82.0664 53.7769 77.0606 53.7641C72.0676 53.7641 68.0044 57.8018 67.9917 62.7694C67.9789 67.6987 72.1058 71.8256 77.0351 71.8256C82.0282 71.8129 86.0531 67.7879 86.0531 62.7949ZM104 10.6866C103.975 6.64885 100.765 3.49 96.6888 3.51548C92.7275 3.54095 89.5432 6.77622 89.5559 10.7757C89.5686 14.737 92.8294 17.9723 96.778 17.9596C100.816 17.9468 104.025 14.7243 104 10.6866ZM57.3688 10.8012C57.407 7.83342 54.9741 5.32417 52.0191 5.27322C49.0513 5.22227 46.5421 7.64236 46.4784 10.6229C46.4019 13.6162 48.9239 16.2018 51.8917 16.2018C54.8722 16.2146 57.3305 13.769 57.3688 10.8012ZM44.5041 15.9598C41.2561 19.2078 37.9571 22.4941 35.0275 25.4364C35.7536 26.1751 36.5688 27.0031 37.4731 27.9456C40.4918 24.9778 43.829 21.7043 46.9879 18.5964C45.9944 17.5392 45.2174 16.7113 44.5041 15.9598ZM33.9958 98.6249C30.4803 98.6249 27.0795 98.6121 23.6913 98.6631C23.5003 98.6631 23.2201 99.2872 23.1436 99.6566C23.029 100.179 23.2328 100.51 23.8824 100.51C26.2898 100.485 28.7098 100.51 31.1172 100.51C32.0597 100.51 33.015 100.51 34.0086 100.51C33.9958 99.8477 33.9958 99.3254 33.9958 98.6249ZM84.2445 98.6249C80.8563 98.6249 77.5956 98.6376 74.3348 98.6121C73.5961 98.5994 73.3541 98.8542 73.3413 99.5929C73.3286 100.37 73.6598 100.535 74.3603 100.523C77.3408 100.497 80.3214 100.51 83.3019 100.51C83.6076 100.51 83.9133 100.459 84.2445 100.421C84.2445 99.8094 84.2445 99.2872 84.2445 98.6249ZM30.3402 30.5695C30.3529 31.563 31.1936 32.3909 32.1999 32.3782C33.1934 32.3782 34.034 31.5503 34.0468 30.544C34.0595 29.4996 33.2061 28.6716 32.1362 28.6971C31.1045 28.7353 30.3147 29.5505 30.3402 30.5695ZM35.0275 44.8607C34.6964 43.0521 34.6964 43.052 33.0278 43.052C32.4546 43.052 31.8942 43.052 31.321 43.052C29.6524 43.052 29.6524 43.0521 29.3594 44.8607C31.2318 44.8607 33.0787 44.8607 35.0275 44.8607Z" fill="#55555A"/>
        <path d="M30.2638 82.4358C27.4489 82.4358 24.6339 82.4358 21.8317 82.4358C20.2905 82.4358 19.7301 81.8626 19.7173 80.2959C19.7046 78.1178 19.7046 75.9525 19.7173 73.7744C19.7301 72.437 20.3414 71.8256 21.6916 71.8256C27.4998 71.8129 33.2953 71.8129 39.1035 71.8256C40.3899 71.8256 41.0395 72.437 41.0523 73.698C41.0778 75.9779 41.0778 78.2579 41.0523 80.5379C41.0395 81.8116 40.4282 82.423 39.1417 82.4358C36.1739 82.4485 33.2189 82.4358 30.2638 82.4358ZM30.2765 79.0094C31.8814 79.0222 33.4736 79.0222 35.0785 79.0222C37.6896 79.0222 37.6514 79.0222 37.6896 76.4492C37.7024 75.5194 37.4349 75.2137 36.4923 75.2265C32.9386 75.2774 29.3849 75.2137 25.8312 75.2519C22.6342 75.2901 23.2073 74.6915 23.1182 78.0286C23.0927 78.7674 23.3602 79.0349 24.0989 79.0222C26.1497 78.9839 28.2131 79.0094 30.2765 79.0094Z" fill="#55555A"/>
        <path d="M51.8917 82.4357C50.1849 82.4357 48.4781 82.4485 46.7585 82.4357C45.5994 82.423 44.8352 81.7352 44.8097 80.7544C44.797 79.7481 45.523 79.0476 46.6949 79.0349C50.1849 79.0094 53.6749 79.0094 57.1649 79.0349C58.324 79.0476 58.9609 79.6845 58.9736 80.6907C58.9863 81.7352 58.2858 82.4102 57.114 82.423C55.3817 82.4484 53.6367 82.4357 51.8917 82.4357Z" fill="#55555A"/>
        <path d="M48.2743 73.5833C48.2488 74.5132 47.4719 75.2264 46.5293 75.2264C45.5358 75.2137 44.7716 74.424 44.8353 73.4432C44.8989 72.5134 45.7014 71.8001 46.6185 71.8383C47.5483 71.8893 48.2998 72.679 48.2743 73.5833Z" fill="#55555A"/>
        <path d="M58.9991 73.5579C58.9864 74.5259 58.2859 75.2137 57.3051 75.2137C56.3243 75.2137 55.6365 74.5259 55.6238 73.5579C55.611 72.5516 56.3625 71.8001 57.356 71.8256C58.2986 71.8511 59.0119 72.6026 58.9991 73.5579Z" fill="#55555A"/>
        <path d="M53.6368 73.5451C53.6368 74.4877 52.9107 75.201 51.9554 75.2137C50.9747 75.2264 50.2741 74.5514 50.2486 73.5833C50.2359 72.5771 50.9747 71.8129 51.9682 71.8383C52.8853 71.8511 53.6368 72.6153 53.6368 73.5451Z" fill="#55555A"/>
        <path d="M82.3212 62.7821C82.3339 65.6989 79.952 68.0936 77.0606 68.0936C74.1565 68.0936 71.7492 65.7117 71.7237 62.8203C71.6855 59.9289 74.0674 57.5089 76.9715 57.4961C80.003 57.4706 82.3084 59.7506 82.3212 62.7821ZM78.9076 62.7566C78.8948 61.7759 78.0414 60.9097 77.0606 60.9097C76.0289 60.897 75.1883 61.7886 75.2137 62.8331C75.2392 63.8648 76.0289 64.6163 77.0861 64.5908C78.1051 64.5781 78.9203 63.7501 78.9076 62.7566Z" fill="#55555A"/>
        <path d="M96.8417 7.24751C98.816 7.27298 100.294 8.8142 100.268 10.8267C100.243 12.7373 98.7014 14.253 96.778 14.2403C94.8037 14.2275 93.2753 12.6863 93.2753 10.7121C93.288 8.73777 94.8547 7.22203 96.8417 7.24751Z" fill="#55555A"/>
        <path d="M54.5156 10.7248C54.5156 12.2023 53.3438 13.3741 51.8917 13.3614C50.5161 13.3487 49.3061 12.1259 49.3061 10.7502C49.2933 9.32367 50.5543 8.10089 51.9809 8.11362C53.3693 8.1391 54.5029 9.29819 54.5156 10.7248ZM53.2546 10.7757C52.656 10.3172 52.2866 9.82042 51.9554 9.8459C51.6115 9.87137 51.0638 10.3936 51.0511 10.712C51.0383 11.0305 51.5606 11.5909 51.9045 11.6291C52.2356 11.6801 52.6305 11.1961 53.2546 10.7757Z" fill="#55555A"/>
    </g>
    <defs>
        <clipPath id="clip0_38_30">
            <rect width="107.49" height="104" fill="white"/>
        </clipPath>
    </defs>
</svg>