<svg xmlns="http://www.w3.org/2000/svg" width="104" height="104" viewBox="0 0 104 104" fill="none">
    <g clip-path="url(#clip0_37_7)">
        <path d="M0 10.1105C0.156826 9.74852 0.349843 9.39864 0.470479 9.02462C2.087 3.57126 6.79179 -0.0120346 12.341 3.0373e-05C17.8058 0.0120953 22.4624 3.54713 24.0909 8.91604C24.2478 9.42277 24.3805 9.94156 24.5855 10.6293C39.8701 10.6293 55.1426 10.6293 70.5236 10.6293C70.5236 11.7392 70.5236 12.6562 70.5236 13.7903C55.3235 13.7903 40.1958 13.7903 24.8389 13.7903C24.7906 14.7796 24.7182 15.5518 24.7182 16.336C24.7062 36.7861 24.7062 57.2362 24.7062 77.6743C24.7062 78.1448 24.6941 78.6274 24.7062 79.0979C24.7424 80.3768 24.3684 81.6557 22.9449 81.4627C22.2814 81.3662 21.3887 80.0511 21.2801 79.1945C20.7735 75.3095 18.795 72.6432 15.1156 71.4367C11.5328 70.2543 8.26354 71.0627 5.66988 73.8497C0.977149 78.917 3.3778 86.8919 10.0731 88.6655C10.7124 88.8344 11.3759 88.9791 12.1118 89.1481C12.1118 90.0771 12.1118 91.0061 12.1118 91.9109C7.70862 92.5021 2.69018 89.0877 0.84445 84.2859C0.566988 83.5499 0.289526 82.8019 0 82.0539C0 58.0687 0 34.0956 0 10.1105ZM3.29335 71.2557C9.28895 66.3332 15.188 66.3453 21.0992 71.0386C21.1716 70.568 21.2319 70.375 21.2319 70.1699C21.2439 50.6126 21.2681 31.0553 21.2198 11.4979C21.2198 10.2794 20.7614 8.95224 20.1823 7.85432C18.2763 4.2469 14.1144 2.49748 10.1816 3.47474C5.9594 4.52439 3.23304 8.01117 3.23304 12.5476C3.20891 31.562 3.22097 50.5884 3.22097 69.6028C3.22097 70.0492 3.25716 70.4956 3.29335 71.2557Z" fill="#55555A"/>
        <path d="M66.6512 104C66.3858 103.131 65.9153 102.263 65.8912 101.382C65.7947 98.4139 65.855 95.446 65.855 92.2246C51.6803 92.2246 37.6504 92.2246 23.4878 92.2246C23.4878 91.0664 23.4878 90.1494 23.4878 89.0515C37.5659 89.0515 51.5476 89.0515 65.855 89.0515C65.855 88.026 65.855 87.1694 65.855 86.3249C65.855 68.3119 65.855 50.2989 65.855 32.2859C65.855 29.3058 65.9877 29.1731 68.9312 29.1731C72.9243 29.1731 76.9052 29.1731 81.1637 29.1731C81.1637 22.9958 81.1637 16.9392 81.1637 10.9429C83.7332 10.4483 84.445 10.955 84.445 13.187C84.457 42.6376 84.457 72.1003 84.4208 101.551C84.4208 102.371 83.9624 103.18 83.7211 104C78.0271 104 72.3452 104 66.6512 104ZM71.1509 47.536C71.7541 49.575 71.549 50.9383 69.1966 50.7694C69.1966 52.7119 69.1966 54.4975 69.1966 56.4882C70.8855 56.4882 72.4176 56.4882 73.9979 56.4882C73.9979 57.5982 73.9979 58.5151 73.9979 59.5165C72.2728 59.5889 70.6925 59.6613 69.1604 59.7337C69.1604 61.845 69.1604 63.7151 69.1604 65.6334C69.9204 65.742 70.5719 65.8265 71.2595 65.923C71.2595 66.9485 71.2595 67.8534 71.2595 68.8427C70.4874 68.9272 69.848 68.9996 69.1484 69.084C69.1484 70.9903 69.1484 72.788 69.1484 74.8269C70.8373 74.8269 72.4176 74.8269 73.9738 74.8269C73.9738 75.9852 73.9738 76.89 73.9738 77.988C72.2728 77.988 70.7407 77.988 69.1484 77.988C69.1484 80.1114 69.1484 82.0418 69.1484 84.0204C69.9084 84.1049 70.5477 84.1652 71.2715 84.2497C71.2715 85.2752 71.2715 86.1921 71.2715 87.1815C70.5236 87.2539 69.8722 87.3262 69.2087 87.3866C69.2087 89.317 69.2087 91.1629 69.2087 93.1054C70.1255 93.1054 70.8734 93.1054 71.6093 93.1054C74.4081 93.1174 74.577 93.3587 73.7446 96.3388C72.2849 96.3388 70.7528 96.3388 69.2087 96.3388C69.2087 97.9313 69.2087 99.2947 69.2087 100.634C73.2741 100.634 77.1706 100.634 81.1154 100.634C81.1154 77.8432 81.1154 55.1972 81.1154 32.5513C77.0138 32.5513 73.069 32.5513 69.1363 32.5513C69.1363 34.4093 69.1363 36.0863 69.1363 38.0529C70.8011 38.0529 72.3814 38.0529 74.022 38.0529C74.022 39.2594 74.022 40.1643 74.022 41.3346C72.2969 41.3346 70.7287 41.3346 69.1845 41.3346C69.1845 43.4701 69.1845 45.3281 69.1845 47.2464C69.8963 47.355 70.4874 47.4395 71.1509 47.536Z" fill="#55555A"/>
        <path d="M103.988 33.8784C103.988 41.8655 104.024 49.8645 103.952 57.8515C103.94 59.2149 103.602 60.6506 103.059 61.9054C101.539 65.4404 99.8863 68.9272 98.1612 72.3778C97.8235 73.0413 96.979 73.7652 96.3035 73.8376C95.7968 73.8859 94.9765 73.0293 94.6628 72.3898C92.7206 68.4566 90.8507 64.4752 89.0171 60.4817C88.7517 59.9026 88.7396 59.1787 88.7396 58.5272C88.7155 42.2757 88.7275 26.0242 88.6672 9.76058C88.6551 4.8984 91.7796 1.27891 96.2552 1.21858C100.863 1.15826 103.976 4.47612 103.976 9.49515C104 17.6269 103.988 25.7467 103.988 33.8784ZM91.9968 11.0274C91.9968 11.9202 91.9968 12.6441 91.9968 13.3801C91.9968 20.4139 91.9847 27.4599 91.9847 34.4938C91.9847 41.6604 91.9606 48.839 92.0329 56.0056C92.0329 56.633 92.5758 57.7912 92.9256 57.8033C95.5193 57.9601 98.125 57.8877 100.719 57.8877C100.719 42.0706 100.719 26.6033 100.719 11.0274C97.8596 11.0274 95.1092 11.0274 91.9968 11.0274ZM92.3707 7.58888C95.0488 7.58888 97.6908 7.58888 100.369 7.58888C99.8019 5.48958 98.4628 4.42786 96.4723 4.39167C94.4698 4.36754 93.0222 5.46545 92.3707 7.58888ZM99.6571 61.3745C97.3892 61.3745 95.3384 61.3745 93.2514 61.3745C93.3238 62.7861 93.9993 63.4617 95.3142 63.2566C96.8222 63.0033 98.9212 64.1977 99.6571 61.3745Z" fill="#55555A"/>
        <path d="M44.973 37.0274C49.0263 37.0274 53.0918 37.0756 57.1451 37.0032C59.0753 36.967 59.7629 37.7271 59.7508 39.6575C59.6785 47.4998 59.7267 55.3541 59.7147 63.1963C59.7147 65.6093 59.3286 66.0074 56.8797 66.0074C48.8333 66.0195 40.7749 66.0195 32.7285 66.0074C30.4364 66.0074 30.0745 65.5851 30.0624 63.2445C30.0503 55.4023 30.0503 47.548 30.0624 39.7058C30.0624 37.3411 30.3761 37.0394 32.7888 37.0274C36.8542 37.0153 40.9076 37.0274 44.973 37.0274ZM36.5767 40.2849C39.2428 43.2046 42.0053 46.2329 44.9368 49.4422C47.8803 46.2088 50.6308 43.1926 53.2727 40.2849C47.7958 40.2849 42.0174 40.2849 36.5767 40.2849ZM56.4454 42.3963C53.3089 45.8107 50.5463 48.8148 48.3146 51.2399C50.7997 54.0028 53.526 57.019 56.4454 60.2645C56.4454 54.3044 56.4454 48.6701 56.4454 42.3963ZM33.3799 42.5773C33.3799 48.7063 33.3799 54.3285 33.3799 60.4213C36.3717 57.0793 39.086 54.0631 41.4987 51.3726C39.1825 48.8752 36.4199 45.8831 33.3799 42.5773ZM36.6853 62.5568C42.0415 62.5568 47.7717 62.5568 52.9952 62.5568C50.4378 59.7698 47.7235 56.8019 44.8523 53.665C42.0053 56.7777 39.291 59.7336 36.6853 62.5568Z" fill="#55555A"/>
        <path d="M19.3741 89.1722C19.3741 90.1615 19.3741 91.0664 19.3741 92.0798C18.2763 92.0798 17.2871 92.0798 16.129 92.0798C16.129 91.175 16.129 90.258 16.129 89.1722C17.082 89.1722 18.1195 89.1722 19.3741 89.1722Z" fill="#55555A"/>
        <path d="M77.7014 10.774C77.7014 11.896 77.7014 12.6923 77.7014 13.6575C76.6037 13.6575 75.5903 13.6575 74.4443 13.6575C74.4443 12.6923 74.4443 11.7995 74.4443 10.774C75.5421 10.774 76.5554 10.774 77.7014 10.774Z" fill="#55555A"/>
        <path d="M27.3602 33.5044C27.3602 32.4186 27.3602 31.5619 27.3602 30.5605C28.3373 30.5605 29.2421 30.5605 30.3157 30.5605C30.3157 31.4895 30.3157 32.4427 30.3157 33.5044C29.3386 33.5044 28.4338 33.5044 27.3602 33.5044Z" fill="#55555A"/>
        <path d="M33.9469 30.5244C34.9361 30.5244 35.8408 30.5244 36.8663 30.5244C36.8663 31.5378 36.8663 32.4427 36.8663 33.4803C35.9132 33.4803 35.0085 33.4803 33.9469 33.4803C33.9469 32.5875 33.9469 31.6826 33.9469 30.5244Z" fill="#55555A"/>
        <path d="M43.3926 30.5726C43.3926 31.5982 43.3926 32.503 43.3926 33.5165C42.3793 33.5165 41.4625 33.5165 40.4371 33.5165C40.4371 32.5392 40.4371 31.6343 40.4371 30.5726C41.378 30.5726 42.2828 30.5726 43.3926 30.5726Z" fill="#55555A"/>
        <path d="M46.9273 33.4803C46.9273 32.4909 46.9273 31.6343 46.9273 30.5967C47.8924 30.5967 48.8454 30.5967 49.9311 30.5967C49.9311 31.5257 49.9311 32.4306 49.9311 33.4803C48.954 33.4803 48.0492 33.4803 46.9273 33.4803Z" fill="#55555A"/>
        <path d="M56.4575 30.5726C56.4575 31.5982 56.4575 32.503 56.4575 33.5165C55.4321 33.5165 54.5273 33.5165 53.4899 33.5165C53.4899 32.5272 53.4899 31.6223 53.4899 30.5726C54.4308 30.5726 55.3356 30.5726 56.4575 30.5726Z" fill="#55555A"/>
        <path d="M60.0162 30.5002C61.0658 30.5002 61.9223 30.5002 62.9477 30.5002C62.9477 31.5137 62.9477 32.4548 62.9477 33.5044C61.9464 33.5044 61.0416 33.5044 60.0162 33.5044C60.0162 32.5151 60.0162 31.6102 60.0162 30.5002Z" fill="#55555A"/>
        <path d="M30.3519 72.619C29.2903 72.619 28.4218 72.619 27.4205 72.619C27.4205 71.6417 27.4205 70.7369 27.4205 69.6631C28.3253 69.6631 29.2783 69.6631 30.3519 69.6631C30.3519 70.6162 30.3519 71.5332 30.3519 72.619Z" fill="#55555A"/>
        <path d="M36.8663 72.619C35.8409 72.619 34.9843 72.619 33.9589 72.619C33.9589 71.6297 33.9589 70.6766 33.9589 69.6149C34.924 69.6149 35.8288 69.6149 36.8663 69.6149C36.8663 70.5921 36.8663 71.497 36.8663 72.619Z" fill="#55555A"/>
        <path d="M40.3888 72.5828C40.3888 71.5211 40.3888 70.6645 40.3888 69.6631C41.3539 69.6631 42.2587 69.6631 43.3444 69.6631C43.3444 70.5559 43.3444 71.509 43.3444 72.5828C42.4034 72.5828 41.4866 72.5828 40.3888 72.5828Z" fill="#55555A"/>
        <path d="M46.9996 69.6149C47.9647 69.6149 48.8816 69.6149 49.919 69.6149C49.919 70.6042 49.919 71.5091 49.919 72.5587C48.9901 72.5587 48.0733 72.5587 46.9996 72.5587C46.9996 71.678 46.9996 70.7731 46.9996 69.6149Z" fill="#55555A"/>
        <path d="M53.526 69.5907C54.5514 69.5907 55.4079 69.5907 56.4213 69.5907C56.4213 70.568 56.4213 71.4728 56.4213 72.5345C55.4924 72.5345 54.5394 72.5345 53.526 72.5345C53.526 71.5211 53.526 70.568 53.526 69.5907Z" fill="#55555A"/>
        <path d="M62.9839 72.619C61.9343 72.619 61.0778 72.619 60.0524 72.619C60.0524 71.6176 60.0524 70.6645 60.0524 69.6149C61.0416 69.6149 61.9464 69.6149 62.9839 69.6149C62.9839 70.6163 62.9839 71.5091 62.9839 72.619Z" fill="#55555A"/>
        <path d="M97.8355 55.0042C96.8342 55.0042 95.9777 55.0042 94.9402 55.0042C94.9402 41.5638 94.9402 28.1596 94.9402 14.6107C95.8812 14.6107 96.786 14.6107 97.8355 14.6107C97.8355 28.039 97.8355 41.4069 97.8355 55.0042Z" fill="#55555A"/>
    </g>
    <defs>
        <clipPath id="clip0_37_7">
            <rect width="104" height="104" fill="white"/>
        </clipPath>
    </defs>
</svg>