<svg xmlns="http://www.w3.org/2000/svg" width="97" height="104" viewBox="0 0 97 104" fill="none">
    <g clip-path="url(#clip0_38_41)">
        <path d="M15.6482 100.178C16.4567 100.271 17.1174 100.346 17.8889 100.434C17.8889 101.629 17.8889 102.754 17.8889 104C11.929 104 6.03843 104 0 104C0 102.828 0 101.717 0 100.457C1.32596 100.374 2.59186 100.29 4.1211 100.192C4.1211 99.095 4.1211 98.1141 4.1211 97.1331C4.1211 67.2395 4.1211 37.3505 4.1211 7.45693C4.1211 6.68053 4.08876 5.90413 4.16269 5.13704C4.42141 2.44987 6.66214 0.2462 9.30945 0.0230439C11.9891 -0.204761 14.6734 1.534 15.1492 4.23046C15.4588 5.98317 16.2118 6.25282 17.7503 6.24817C30.1413 6.19703 54.0826 6.21562 66.469 6.22492C67.3884 6.22492 68.3262 6.20633 69.2318 6.3365C72.3734 6.79211 73.8149 9.48393 72.3411 12.3292C70.7795 15.3418 69.0978 18.2986 67.3422 21.2043C66.6492 22.3526 66.7 23.2127 67.3653 24.3331C68.9777 27.0528 70.4884 29.8376 71.99 32.6224C74.069 36.4765 72.3411 39.4054 67.952 39.4147C55.33 39.438 31.1578 39.424 18.5403 39.424C17.6302 39.424 16.7247 39.424 15.6482 39.424C15.6482 59.7173 15.6482 79.806 15.6482 100.178ZM15.6343 10.2696C15.6343 18.7263 15.6343 26.9645 15.6343 35.277C29.5731 35.277 54.9003 35.277 68.9962 35.277C67.2867 32.1901 65.8637 29.2844 64.1312 26.5786C62.4588 23.9705 62.4541 21.6692 64.1358 19.0657C65.9053 16.3227 67.3653 13.3706 69.0978 10.2696C54.9188 10.2696 29.6147 10.2696 15.6343 10.2696ZM11.6056 100.211C11.6056 99.3461 11.6056 98.7324 11.6056 98.1234C11.6056 67.8392 11.6056 37.5551 11.6056 7.27561C11.6056 6.81071 11.7719 6.22957 11.5548 5.90413C11.0605 5.16493 10.3813 4.55125 9.77607 3.88643C9.14312 4.54195 8.38081 5.11844 7.92804 5.88089C7.65546 6.34115 7.86798 7.08965 7.86798 7.70798C7.86336 37.6806 7.86336 67.6533 7.86336 97.6259C7.86336 98.4488 7.86336 99.2763 7.86336 100.206C9.20318 100.211 10.2473 100.211 11.6056 100.211Z" fill="#55555A"/>
        <path d="M93.2331 99.9739C93.9723 100.197 94.5359 100.364 95.2105 100.569C95.2105 101.634 95.2105 102.694 95.2105 103.944C72.3365 103.944 49.4671 103.944 26.4869 103.944C26.4869 102.824 26.4869 101.768 26.4869 100.443C27.8175 100.369 29.1573 100.29 30.7281 100.202C30.802 98.7884 30.8759 97.4401 30.9545 95.9431C32.1372 95.9431 33.246 95.9431 34.5119 95.9431C34.5859 97.3425 34.6598 98.7 34.7429 100.178C35.8194 100.178 36.785 100.178 38.0971 100.178C38.0971 96.7474 38.0971 93.321 38.0971 89.7645C39.5386 89.7645 40.6474 89.7645 41.9687 89.7645C41.9687 93.2467 41.9687 96.6219 41.9687 100.155C43.1376 100.155 44.094 100.155 45.3737 100.155C45.3737 97.4076 45.3737 94.6693 45.3737 91.7775C46.8013 91.7775 47.9102 91.7775 49.2962 91.7775C49.2962 94.5252 49.2962 97.2728 49.2962 100.164C50.5205 100.164 51.4769 100.164 52.7566 100.164C52.7566 98.091 52.7566 96.0501 52.7566 93.9394C54.1981 93.9394 55.3161 93.9394 56.6791 93.9394C56.6791 96.0501 56.6791 98.0306 56.6791 100.16C57.8757 100.16 58.832 100.16 60.0286 100.16C60.0286 95.3666 60.0286 90.606 60.0286 85.6454C61.4239 85.6454 62.5881 85.6454 64.0204 85.6454C64.0204 90.4758 64.0204 95.2458 64.0204 100.16C65.2354 100.16 66.1918 100.16 67.43 100.16C67.43 93.2095 67.43 86.287 67.43 79.2204C68.7421 79.2204 69.7908 79.2204 71.1584 79.2204C71.1584 86.0685 71.1584 92.9817 71.1584 100.16C72.4843 100.22 73.5054 100.262 74.7897 100.318C74.7897 94.6088 74.7897 89.0764 74.7897 83.3999C76.088 83.3999 77.1321 83.3999 78.472 83.3999C78.472 88.844 78.472 94.3671 78.472 100.174C79.7748 100.234 80.8051 100.281 82.0987 100.337C82.0987 93.2746 82.0987 86.3474 82.0987 79.2436C83.4478 79.2436 84.5473 79.2436 85.9195 79.2436C85.9195 86.1615 85.9195 93.0886 85.9195 100.16C87.2177 100.16 88.248 100.16 89.5047 100.16C89.5047 89.7598 89.5047 79.4203 89.5047 68.9041C90.8214 68.9041 91.9256 68.9041 93.2377 68.9041C93.2331 79.2297 93.2331 89.5785 93.2331 99.9739Z" fill="#55555A"/>
        <path d="M88.7608 56.5422C87.5088 56.8676 86.8574 57.2628 86.3677 57.1186C85.5822 56.8815 84.478 56.412 84.3025 55.8076C84.1269 55.1986 84.7368 53.8596 85.3235 53.6179C87.8692 52.5579 90.498 51.6467 93.1638 50.9447C94.9887 50.4611 96.6196 52.0279 96.4856 54.0828C96.3147 56.7049 96.0097 59.3316 95.5108 61.9072C95.3814 62.5674 94.1479 63.6088 93.6997 63.4786C92.9744 63.2694 92.3275 62.321 91.9441 61.5353C91.6715 60.9774 91.8933 60.1731 91.8933 58.797C86.8481 65.5149 82.1311 71.7958 77.2938 78.2348C74.0967 75.5476 70.9874 72.9302 67.7164 70.1826C62.4634 76.1287 57.2751 82.0052 51.9712 88.0072C48.4184 85.2363 44.9672 82.5491 41.6823 79.9875C36.4847 84.9852 31.3472 89.9179 26.0295 95.0273C25.2533 94.1579 24.4956 93.3071 23.5208 92.2146C29.4992 86.5985 35.496 80.9731 41.7239 75.1245C44.4312 77.2352 47.8824 79.927 51.4953 82.7397C56.7299 76.8122 61.9228 70.9311 67.3237 64.8129C70.4238 67.4164 73.4592 69.9641 76.6747 72.6605C80.6341 67.3838 84.5011 62.2233 88.7608 56.5422Z" fill="#55555A"/>
        <path d="M21.9638 27.5133H26.7964V29.9215H18.1523V28.0851L22.837 22.5294C23.701 21.5345 24.1353 20.6047 24.1353 19.7307C24.1353 19.2007 23.9689 18.7823 23.6363 18.4754C23.3036 18.1686 22.8878 18.0152 22.3889 18.0152C21.9038 18.0152 21.4972 18.1686 21.183 18.4754C20.8642 18.7823 20.6841 19.2007 20.6471 19.7307H18.1292C18.1292 18.5173 18.5542 17.541 19.4089 16.7925C20.2729 16.03 21.317 15.6488 22.5321 15.6488C23.8026 15.6488 24.8514 16.044 25.6784 16.8343C26.5285 17.6107 26.9581 18.5777 26.9581 19.7353C26.9581 20.3351 26.8288 20.9209 26.57 21.4927C26.2882 22.1203 26.0341 22.5806 25.8216 22.8828C25.5906 23.1943 25.2672 23.6034 24.8467 24.1055L21.9638 27.5133Z" fill="#55555A"/>
        <path d="M38.4621 20.1212V25.6164C38.4621 27.0995 38.014 28.2246 37.1223 28.987C36.2583 29.7355 35.1356 30.1121 33.7542 30.1121C32.3728 30.1121 31.2455 29.7355 30.3677 28.987C29.4899 28.2246 29.051 27.1041 29.051 25.6164V20.1445C29.051 18.5917 29.4899 17.4573 30.3677 16.7367C31.2455 16.0161 32.3775 15.6534 33.7542 15.6534C35.131 15.6534 36.2629 16.0161 37.1408 16.7367C38.0186 17.4573 38.4621 18.587 38.4621 20.1212ZM35.6208 25.37V20.3862C35.6208 18.8334 34.997 18.057 33.7542 18.057C32.4976 18.057 31.8693 18.8334 31.8693 20.3862V25.3654C31.8693 26.9182 32.4976 27.6946 33.7542 27.6946C34.997 27.6946 35.6208 26.9228 35.6208 25.37Z" fill="#55555A"/>
        <path d="M49.6196 20.1212V25.6164C49.6196 27.0995 49.1714 28.2246 48.2798 28.987C47.4158 29.7355 46.2931 30.1121 44.9117 30.1121C43.5303 30.1121 42.403 29.7355 41.5252 28.987C40.6474 28.2246 40.2085 27.1041 40.2085 25.6164V20.1445C40.2085 18.5917 40.6474 17.4573 41.5252 16.7367C42.403 16.0161 43.5349 15.6534 44.9117 15.6534C46.2885 15.6534 47.4204 16.0161 48.2982 16.7367C49.1761 17.4573 49.6196 18.587 49.6196 20.1212ZM46.7782 25.37V20.3862C46.7782 18.8334 46.1545 18.057 44.9117 18.057C43.6551 18.057 43.0267 18.8334 43.0267 20.3862V25.3654C43.0267 26.9182 43.6551 27.6946 44.9117 27.6946C46.1545 27.6946 46.7782 26.9228 46.7782 25.37Z" fill="#55555A"/>
        <path d="M56.679 29.9215H53.6344L56.5774 24.1241C56.2124 24.3007 55.7596 24.3891 55.2191 24.3891C54.138 24.3891 53.2232 23.9939 52.4794 23.2036C51.7356 22.4132 51.3613 21.409 51.3613 20.1817C51.3613 18.6986 51.8002 17.5735 52.678 16.8111C53.5559 16.0347 54.6878 15.6488 56.0646 15.6488C57.4552 15.6488 58.5917 16.03 59.4742 16.7925C60.352 17.5549 60.7909 18.6754 60.7909 20.1631C60.7909 21.0882 60.3566 22.4272 59.4927 24.1845L56.679 29.9215ZM57.9542 20.0608C57.9542 19.4332 57.7878 18.945 57.4552 18.5917C57.1226 18.2383 56.6606 18.0617 56.0646 18.0617C55.4686 18.0617 55.0112 18.2383 54.6832 18.5917C54.3598 18.945 54.1981 19.4378 54.1981 20.0608C54.1981 20.6745 54.3598 21.158 54.6832 21.5113C55.0066 21.8646 55.4686 22.0413 56.0646 22.0413C56.6606 22.0413 57.1226 21.8646 57.4552 21.5113C57.7925 21.158 57.9542 20.6745 57.9542 20.0608Z" fill="#55555A"/>
    </g>
    <defs>
        <clipPath id="clip0_38_41">
            <rect width="96.4948" height="104" fill="white"/>
        </clipPath>
    </defs>
</svg>