<svg xmlns="http://www.w3.org/2000/svg" width="60" height="52" viewBox="0 0 60 52" fill="none">
    <g clip-path="url(#clip0_112_32)">
        <path d="M18.0624 50.775C18.8267 49.8924 19.5694 48.9666 20.3767 48.1055C21.3886 47.0291 21.5501 45.5328 20.6997 44.338C19.9354 43.2616 18.2992 42.8418 17.0721 43.4661C16.7277 43.6383 16.4263 43.9074 16.1464 44.1765C15.2314 45.0269 14.338 45.8988 13.4338 46.7707C11.7869 43.8751 12.8633 40.6136 15.7051 39.0743C17.0936 38.3208 18.5468 38.0301 20.1184 38.31C20.3014 38.3423 20.592 38.127 20.7212 37.9548C24.3595 32.7018 27.9763 27.4381 31.6039 22.1851C32.8095 20.4413 34.0151 18.6975 35.2314 16.9752C35.5436 16.5339 35.6189 16.1787 35.3606 15.6297C33.7783 12.1851 35.9742 8.66523 39.5156 7.79332C40.9042 7.44887 42.3036 7.49192 43.7567 8.14854C42.9386 8.91281 42.2067 9.61248 41.4532 10.3014C40.3337 11.324 40.1615 12.282 40.9257 13.5414C41.4209 14.3595 42.1529 14.93 43.0463 15.2207C43.8321 15.479 44.5963 15.3283 45.2207 14.704C45.9849 13.9612 46.76 13.2293 47.5996 12.4112C48.084 14.1119 47.9548 15.6405 47.2551 17.1044C46.3509 18.9989 44.8762 20.1938 42.7664 20.5167C42.4435 20.5705 42.0775 20.6136 41.7869 20.5059C41.098 20.2583 40.7643 20.5597 40.3983 21.0872C36.394 26.9322 32.3789 32.7664 28.3638 38.6114C27.6211 39.6878 26.943 40.8181 26.1033 41.8192C25.4144 42.6372 25.5221 43.4553 25.6405 44.3703C26.0603 47.6534 23.4446 51.4962 19.4726 51.1087C18.902 51.0441 18.3638 50.8504 18.0624 50.775Z" fill="#AAAAAF"/>
        <path d="M51.3561 49.0207C56.6844 42.8958 59.0525 35.856 58.4928 27.955C57.9761 20.6999 55.0375 14.4459 49.7522 9.39745C38.9987 -0.882424 22.454 -1.18382 11.3669 8.31026C0.387308 17.729 -1.21657 32.9389 4.94059 43.8323C5.45727 43.1542 5.94167 42.5298 6.52294 41.7656C6.80281 44.2521 7.06115 46.588 7.33026 49.0853C5.13435 47.6213 3.07837 46.2543 1.03316 44.8872C1.04393 44.8442 1.06546 44.7903 1.07622 44.7473C1.8943 44.6719 2.71239 44.5966 3.62735 44.5105C3.22907 43.6709 2.83079 42.8958 2.4971 42.0885C1.30227 39.2252 0.451893 36.2758 0.161258 33.1649C-0.646062 24.7042 1.6252 17.1908 7.07191 10.6784C11.2915 5.62995 16.6736 2.37915 23.0568 0.829094C26.2215 0.0648315 29.4401 -0.193511 32.6909 0.140181C38.848 0.775273 44.3593 2.98195 49.1387 6.97549C54.4024 11.3673 57.7501 16.9324 59.2678 23.5847C59.9783 26.7171 60.1936 29.9034 59.8168 33.1003C59.5046 35.7807 58.8695 38.3856 57.89 40.9152C56.8351 43.617 55.4142 46.0821 53.6919 48.4071C53.326 48.9023 52.9384 49.0745 52.3787 49.0099C52.0988 48.9992 51.8082 49.0207 51.3561 49.0207Z" fill="#AAAAAF"/>
        <path d="M19.5587 17.1152C19.0958 16.577 18.6652 16.0818 18.1378 15.479C19.1712 14.7578 20.183 14.0366 21.2164 13.3046C21.6469 14.0043 21.9914 14.564 22.3358 15.1238C23.38 14.704 24.4026 14.2949 25.479 13.8644C25.3175 13.3369 25.1561 12.7987 24.9839 12.2605C24.887 11.9591 24.9193 11.7653 25.2853 11.69C26.3186 11.4855 27.352 11.2594 28.4822 11.0118C28.5899 11.7761 28.6868 12.4327 28.7944 13.1539H32.1098C32.2174 12.5188 32.3251 11.8622 32.4435 11.1948C32.6695 11.1841 32.8418 11.1733 33.014 11.1733C33.4338 11.1518 33.606 11.3778 33.4661 11.7546C32.9709 13.1001 33.3692 14.3703 33.6814 15.6728C33.746 15.9311 33.7137 16.2433 33.6168 16.4909C33.4984 16.7815 33.3046 17.0721 33.0678 17.2982C32.8848 17.4704 32.5834 17.6534 32.3681 17.6103C29.9462 17.1367 27.6211 17.4381 25.4037 18.4499C21.733 20.1399 19.451 22.9925 18.6006 26.9645C17.944 29.9892 18.5576 32.7987 20.0538 35.4575C20.3552 35.9849 20 36.5554 19.3864 36.62C18.4822 36.7061 17.578 36.8461 16.6738 36.9752C16.3186 37.0291 16.0495 37.0506 15.8881 36.6308C15.7696 36.3079 15.5651 36.0172 15.3714 35.6835C14.7147 35.9634 14.0797 36.2217 13.3262 36.5447C12.9494 35.3175 12.5834 34.1335 12.1959 32.8956C12.9817 32.7341 13.6491 32.5834 14.3165 32.4543C14.2196 31.3348 14.1335 30.2583 14.0258 29.1066C13.4769 29.1066 12.9386 29.0958 12.3897 29.1066C11.9806 29.1173 11.8407 28.9343 11.8945 28.5361C12.0237 27.5888 12.1529 26.6416 12.2605 25.6835C12.3036 25.3283 12.4435 25.2422 12.7879 25.3391C13.3262 25.4898 13.8751 25.5974 14.4133 25.7158C14.7901 24.6286 15.1346 23.606 15.5113 22.5404C14.9193 22.2497 14.3165 21.9699 13.5307 21.5931C14.1765 20.5597 14.7901 19.5479 15.436 18.5576C15.479 18.493 15.7912 18.5253 15.9203 18.6114C16.3724 18.9128 16.803 19.2573 17.2443 19.6017C18.0194 18.7836 18.7729 17.9656 19.5587 17.1152Z" fill="#AAAAAF"/>
        <path d="M28.0732 47.5673C28.1485 46.7923 28.2239 46.1141 28.2992 45.3929C28.1808 45.3606 28.084 45.3176 27.9763 45.3068C27.3628 45.2853 27.2443 44.9839 27.1259 44.3703C26.8568 43.014 27.718 42.2175 28.3638 41.3133C28.4822 41.1518 28.8697 41.0764 29.1173 41.1087C34.8977 41.8084 40.6136 37.6427 41.8192 31.9484C42.4112 29.1712 42.1206 26.5447 40.8827 24.0043C40.5167 23.2616 41.3132 22.0022 42.1529 22.0237C43.6921 22.0452 45.07 21.6039 46.3617 20.6136C46.6093 21.098 46.8353 21.5393 47.0936 22.0237C46.4155 22.3251 45.7912 22.605 45.1453 22.8956C45.4682 23.9505 45.7912 24.9731 46.1356 26.0818C46.7707 25.9742 47.4489 25.8558 48.2885 25.7158C48.3961 26.9645 48.5038 28.1809 48.6222 29.4726H46.4908C46.3509 30.6136 46.211 31.6792 46.071 32.8203C46.7277 32.9817 47.4166 33.154 48.2024 33.3585C47.761 34.6071 47.3412 35.802 46.9322 36.9753C46.2325 36.6739 45.5974 36.394 44.9946 36.1249C44.4672 36.9645 43.9828 37.7611 43.4661 38.5361C43.24 38.8805 43.2616 39.1174 43.606 39.3434C44.0258 39.6233 44.4241 39.9247 44.9516 40.3014C44.0904 41.2487 43.2616 42.1744 42.3681 43.154C42.0775 42.8095 41.8515 42.5189 41.6039 42.2498C41.3671 41.9914 41.1087 41.7546 40.8934 41.5393C40.0969 42.0883 39.3111 42.6373 38.5145 43.1647C38.2347 43.3477 38.1808 43.4984 38.3638 43.7998C38.6545 44.2627 38.8913 44.7471 39.2142 45.3391C38.0624 45.845 36.9322 46.3294 35.7266 46.8569C35.479 46.0926 35.2637 45.436 35.0484 44.8009C34.0366 44.9839 33.0786 45.1346 32.1313 45.3391C31.9914 45.3714 31.8192 45.619 31.8192 45.7697C31.8192 46.3294 31.8837 46.8999 31.9268 47.5458H28.0732V47.5673Z" fill="#AAAAAF"/>
    </g>
    <defs>
        <clipPath id="clip0_112_32">
            <rect width="60" height="51.1302" fill="white"/>
        </clipPath>
    </defs>
</svg>